<mxfile host="app.diagrams.net" modified="2020-04-14T11:48:04.604Z" agent="5.0 (Windows NT 6.1; Win64; x64) AppleWebKit/537.36 (KHTML, like Gecko) Chrome/80.0.3987.163 Safari/537.36" etag="xWgIk1FIkLUJGByuGffA" version="12.9.12" type="github">
  <diagram name="Page-1" id="e3a06f82-3646-2815-327d-82caf3d4e204">
    <mxGraphModel dx="4521" dy="1768" grid="1" gridSize="10" guides="1" tooltips="1" connect="1" arrows="1" fold="1" page="1" pageScale="1.5" pageWidth="1169" pageHeight="826" background="none" math="0" shadow="0">
      <root>
        <mxCell id="0" style=";html=1;" />
        <mxCell id="1" style=";html=1;" parent="0" />
        <mxCell id="VnbkcWjP90r7t8As7K5k-127" value="" style="rounded=0;whiteSpace=wrap;html=1;fillColor=#ffe6cc;strokeColor=#d79b00;" parent="1" vertex="1">
          <mxGeometry x="-1500" y="650" width="720" height="260" as="geometry" />
        </mxCell>
        <mxCell id="EQZSQnF4mukgCcLH6d8S-12" value="" style="shape=cube;whiteSpace=wrap;html=1;boundedLbl=1;backgroundOutline=1;darkOpacity=0.05;darkOpacity2=0.1;" vertex="1" parent="1">
          <mxGeometry x="-967.51" y="697" width="177" height="140" as="geometry" />
        </mxCell>
        <mxCell id="VnbkcWjP90r7t8As7K5k-126" value="" style="rounded=0;whiteSpace=wrap;html=1;fillColor=#d5e8d4;strokeColor=#82b366;" parent="1" vertex="1">
          <mxGeometry x="-1120" y="20" width="470" height="610" as="geometry" />
        </mxCell>
        <mxCell id="VnbkcWjP90r7t8As7K5k-125" value="" style="rounded=0;whiteSpace=wrap;html=1;fillColor=#f5f5f5;strokeColor=#666666;fontColor=#333333;" parent="1" vertex="1">
          <mxGeometry x="-1830" y="20" width="503.5" height="610" as="geometry" />
        </mxCell>
        <mxCell id="VnbkcWjP90r7t8As7K5k-124" value="" style="rounded=0;whiteSpace=wrap;html=1;fillColor=#fff2cc;strokeColor=#d6b656;" parent="1" vertex="1">
          <mxGeometry x="-1500" y="940" width="720" height="440" as="geometry" />
        </mxCell>
        <mxCell id="VnbkcWjP90r7t8As7K5k-10" value="client" style="verticalLabelPosition=bottom;aspect=fixed;html=1;verticalAlign=top;strokeColor=none;shape=mxgraph.citrix.desktop;fillColor=#66B2FF;gradientColor=#0066CC;fontSize=14;" parent="1" vertex="1">
          <mxGeometry x="-1590" y="130" width="54.49" height="60" as="geometry" />
        </mxCell>
        <mxCell id="VnbkcWjP90r7t8As7K5k-11" value="client" style="verticalLabelPosition=bottom;aspect=fixed;html=1;verticalAlign=top;strokeColor=none;shape=mxgraph.citrix.desktop;fillColor=#66B2FF;gradientColor=#0066CC;fontSize=14;" parent="1" vertex="1">
          <mxGeometry x="-1510" y="130" width="54.49" height="60" as="geometry" />
        </mxCell>
        <mxCell id="VnbkcWjP90r7t8As7K5k-12" value="client" style="verticalLabelPosition=bottom;aspect=fixed;html=1;verticalAlign=top;strokeColor=none;shape=mxgraph.citrix.desktop;fillColor=#66B2FF;gradientColor=#0066CC;fontSize=14;" parent="1" vertex="1">
          <mxGeometry x="-1430" y="130" width="54.49" height="60" as="geometry" />
        </mxCell>
        <mxCell id="VnbkcWjP90r7t8As7K5k-13" value="client" style="verticalLabelPosition=bottom;aspect=fixed;html=1;verticalAlign=top;strokeColor=none;shape=mxgraph.citrix.desktop;fillColor=#66B2FF;gradientColor=#0066CC;fontSize=14;" parent="1" vertex="1">
          <mxGeometry x="-1590" y="200" width="54.49" height="60" as="geometry" />
        </mxCell>
        <mxCell id="VnbkcWjP90r7t8As7K5k-14" value="client" style="verticalLabelPosition=bottom;aspect=fixed;html=1;verticalAlign=top;strokeColor=none;shape=mxgraph.citrix.desktop;fillColor=#66B2FF;gradientColor=#0066CC;fontSize=14;" parent="1" vertex="1">
          <mxGeometry x="-1510" y="200" width="54.49" height="60" as="geometry" />
        </mxCell>
        <mxCell id="VnbkcWjP90r7t8As7K5k-15" value="client" style="verticalLabelPosition=bottom;aspect=fixed;html=1;verticalAlign=top;strokeColor=none;shape=mxgraph.citrix.desktop;fillColor=#66B2FF;gradientColor=#0066CC;fontSize=14;" parent="1" vertex="1">
          <mxGeometry x="-1430" y="200" width="54.49" height="60" as="geometry" />
        </mxCell>
        <mxCell id="VnbkcWjP90r7t8As7K5k-22" value="client" style="verticalLabelPosition=bottom;aspect=fixed;html=1;verticalAlign=top;strokeColor=none;shape=mxgraph.citrix.desktop;fillColor=#66B2FF;gradientColor=#0066CC;fontSize=14;" parent="1" vertex="1">
          <mxGeometry x="-1590" y="470" width="54.49" height="60" as="geometry" />
        </mxCell>
        <mxCell id="VnbkcWjP90r7t8As7K5k-23" value="client" style="verticalLabelPosition=bottom;aspect=fixed;html=1;verticalAlign=top;strokeColor=none;shape=mxgraph.citrix.desktop;fillColor=#66B2FF;gradientColor=#0066CC;fontSize=14;" parent="1" vertex="1">
          <mxGeometry x="-1510" y="470" width="54.49" height="60" as="geometry" />
        </mxCell>
        <mxCell id="VnbkcWjP90r7t8As7K5k-24" value="client" style="verticalLabelPosition=bottom;aspect=fixed;html=1;verticalAlign=top;strokeColor=none;shape=mxgraph.citrix.desktop;fillColor=#66B2FF;gradientColor=#0066CC;fontSize=14;" parent="1" vertex="1">
          <mxGeometry x="-1430" y="470" width="54.49" height="60" as="geometry" />
        </mxCell>
        <mxCell id="VnbkcWjP90r7t8As7K5k-25" value="client" style="verticalLabelPosition=bottom;aspect=fixed;html=1;verticalAlign=top;strokeColor=none;shape=mxgraph.citrix.desktop;fillColor=#66B2FF;gradientColor=#0066CC;fontSize=14;" parent="1" vertex="1">
          <mxGeometry x="-1590" y="540" width="54.49" height="60" as="geometry" />
        </mxCell>
        <mxCell id="VnbkcWjP90r7t8As7K5k-26" value="client" style="verticalLabelPosition=bottom;aspect=fixed;html=1;verticalAlign=top;strokeColor=none;shape=mxgraph.citrix.desktop;fillColor=#66B2FF;gradientColor=#0066CC;fontSize=14;" parent="1" vertex="1">
          <mxGeometry x="-1510" y="540" width="54.49" height="60" as="geometry" />
        </mxCell>
        <mxCell id="VnbkcWjP90r7t8As7K5k-27" value="client" style="verticalLabelPosition=bottom;aspect=fixed;html=1;verticalAlign=top;strokeColor=none;shape=mxgraph.citrix.desktop;fillColor=#66B2FF;gradientColor=#0066CC;fontSize=14;" parent="1" vertex="1">
          <mxGeometry x="-1430" y="540" width="54.49" height="60" as="geometry" />
        </mxCell>
        <mxCell id="VnbkcWjP90r7t8As7K5k-28" value="client" style="verticalLabelPosition=bottom;aspect=fixed;html=1;verticalAlign=top;strokeColor=none;shape=mxgraph.citrix.desktop;fillColor=#66B2FF;gradientColor=#0066CC;fontSize=14;" parent="1" vertex="1">
          <mxGeometry x="-925" y="120" width="54.49" height="60" as="geometry" />
        </mxCell>
        <mxCell id="VnbkcWjP90r7t8As7K5k-29" value="client" style="verticalLabelPosition=bottom;aspect=fixed;html=1;verticalAlign=top;strokeColor=none;shape=mxgraph.citrix.desktop;fillColor=#66B2FF;gradientColor=#0066CC;fontSize=14;" parent="1" vertex="1">
          <mxGeometry x="-845" y="120" width="54.49" height="60" as="geometry" />
        </mxCell>
        <mxCell id="VnbkcWjP90r7t8As7K5k-30" value="client" style="verticalLabelPosition=bottom;aspect=fixed;html=1;verticalAlign=top;strokeColor=none;shape=mxgraph.citrix.desktop;fillColor=#66B2FF;gradientColor=#0066CC;fontSize=14;" parent="1" vertex="1">
          <mxGeometry x="-765" y="120" width="54.49" height="60" as="geometry" />
        </mxCell>
        <mxCell id="VnbkcWjP90r7t8As7K5k-31" value="client" style="verticalLabelPosition=bottom;aspect=fixed;html=1;verticalAlign=top;strokeColor=none;shape=mxgraph.citrix.desktop;fillColor=#66B2FF;gradientColor=#0066CC;fontSize=14;" parent="1" vertex="1">
          <mxGeometry x="-925" y="190" width="54.49" height="60" as="geometry" />
        </mxCell>
        <mxCell id="VnbkcWjP90r7t8As7K5k-32" value="client" style="verticalLabelPosition=bottom;aspect=fixed;html=1;verticalAlign=top;strokeColor=none;shape=mxgraph.citrix.desktop;fillColor=#66B2FF;gradientColor=#0066CC;fontSize=14;" parent="1" vertex="1">
          <mxGeometry x="-845" y="190" width="54.49" height="60" as="geometry" />
        </mxCell>
        <mxCell id="VnbkcWjP90r7t8As7K5k-33" value="client" style="verticalLabelPosition=bottom;aspect=fixed;html=1;verticalAlign=top;strokeColor=none;shape=mxgraph.citrix.desktop;fillColor=#66B2FF;gradientColor=#0066CC;fontSize=14;" parent="1" vertex="1">
          <mxGeometry x="-765" y="190" width="54.49" height="60" as="geometry" />
        </mxCell>
        <mxCell id="VnbkcWjP90r7t8As7K5k-40" value="client" style="verticalLabelPosition=bottom;aspect=fixed;html=1;verticalAlign=top;strokeColor=none;shape=mxgraph.citrix.desktop;fillColor=#66B2FF;gradientColor=#0066CC;fontSize=14;" parent="1" vertex="1">
          <mxGeometry x="-920" y="470" width="54.49" height="60" as="geometry" />
        </mxCell>
        <mxCell id="VnbkcWjP90r7t8As7K5k-41" value="client" style="verticalLabelPosition=bottom;aspect=fixed;html=1;verticalAlign=top;strokeColor=none;shape=mxgraph.citrix.desktop;fillColor=#66B2FF;gradientColor=#0066CC;fontSize=14;" parent="1" vertex="1">
          <mxGeometry x="-840" y="470" width="54.49" height="60" as="geometry" />
        </mxCell>
        <mxCell id="VnbkcWjP90r7t8As7K5k-42" value="client" style="verticalLabelPosition=bottom;aspect=fixed;html=1;verticalAlign=top;strokeColor=none;shape=mxgraph.citrix.desktop;fillColor=#66B2FF;gradientColor=#0066CC;fontSize=14;" parent="1" vertex="1">
          <mxGeometry x="-760" y="470" width="54.49" height="60" as="geometry" />
        </mxCell>
        <mxCell id="VnbkcWjP90r7t8As7K5k-43" value="client" style="verticalLabelPosition=bottom;aspect=fixed;html=1;verticalAlign=top;strokeColor=none;shape=mxgraph.citrix.desktop;fillColor=#66B2FF;gradientColor=#0066CC;fontSize=14;" parent="1" vertex="1">
          <mxGeometry x="-920" y="540" width="54.49" height="60" as="geometry" />
        </mxCell>
        <mxCell id="VnbkcWjP90r7t8As7K5k-44" value="client" style="verticalLabelPosition=bottom;aspect=fixed;html=1;verticalAlign=top;strokeColor=none;shape=mxgraph.citrix.desktop;fillColor=#66B2FF;gradientColor=#0066CC;fontSize=14;" parent="1" vertex="1">
          <mxGeometry x="-840" y="540" width="54.49" height="60" as="geometry" />
        </mxCell>
        <mxCell id="VnbkcWjP90r7t8As7K5k-45" value="client" style="verticalLabelPosition=bottom;aspect=fixed;html=1;verticalAlign=top;strokeColor=none;shape=mxgraph.citrix.desktop;fillColor=#66B2FF;gradientColor=#0066CC;fontSize=14;" parent="1" vertex="1">
          <mxGeometry x="-760" y="540" width="54.49" height="60" as="geometry" />
        </mxCell>
        <mxCell id="VnbkcWjP90r7t8As7K5k-64" value="client" style="verticalLabelPosition=bottom;aspect=fixed;html=1;verticalAlign=top;strokeColor=#d6b656;shape=mxgraph.citrix.desktop;fillColor=#fff2cc;fontSize=14;" parent="1" vertex="1">
          <mxGeometry x="-1350" y="1120" width="54.49" height="60" as="geometry" />
        </mxCell>
        <mxCell id="VnbkcWjP90r7t8As7K5k-65" value="client" style="verticalLabelPosition=bottom;aspect=fixed;html=1;verticalAlign=top;strokeColor=#d6b656;shape=mxgraph.citrix.desktop;fillColor=#fff2cc;fontSize=14;" parent="1" vertex="1">
          <mxGeometry x="-1270" y="1120" width="54.49" height="60" as="geometry" />
        </mxCell>
        <mxCell id="VnbkcWjP90r7t8As7K5k-67" value="client" style="verticalLabelPosition=bottom;aspect=fixed;html=1;verticalAlign=top;strokeColor=#d6b656;shape=mxgraph.citrix.desktop;fillColor=#fff2cc;fontSize=14;" parent="1" vertex="1">
          <mxGeometry x="-1350" y="1190" width="54.49" height="60" as="geometry" />
        </mxCell>
        <mxCell id="VnbkcWjP90r7t8As7K5k-68" value="client" style="verticalLabelPosition=bottom;aspect=fixed;html=1;verticalAlign=top;strokeColor=#d6b656;shape=mxgraph.citrix.desktop;fillColor=#fff2cc;fontSize=14;" parent="1" vertex="1">
          <mxGeometry x="-1270" y="1190" width="54.49" height="60" as="geometry" />
        </mxCell>
        <mxCell id="VnbkcWjP90r7t8As7K5k-70" value="client" style="verticalLabelPosition=bottom;aspect=fixed;html=1;verticalAlign=top;strokeColor=#d6b656;shape=mxgraph.citrix.desktop;fillColor=#fff2cc;fontSize=14;" parent="1" vertex="1">
          <mxGeometry x="-1350" y="1260" width="54.49" height="60" as="geometry" />
        </mxCell>
        <mxCell id="VnbkcWjP90r7t8As7K5k-71" value="client" style="verticalLabelPosition=bottom;aspect=fixed;html=1;verticalAlign=top;strokeColor=#d6b656;shape=mxgraph.citrix.desktop;fillColor=#fff2cc;fontSize=14;" parent="1" vertex="1">
          <mxGeometry x="-1270" y="1260" width="54.49" height="60" as="geometry" />
        </mxCell>
        <mxCell id="VnbkcWjP90r7t8As7K5k-74" value="client" style="verticalLabelPosition=bottom;aspect=fixed;html=1;verticalAlign=top;strokeColor=#d6b656;shape=mxgraph.citrix.desktop;fillColor=#fff2cc;fontSize=14;" parent="1" vertex="1">
          <mxGeometry x="-994.49" y="1120" width="54.49" height="60" as="geometry" />
        </mxCell>
        <mxCell id="VnbkcWjP90r7t8As7K5k-75" value="client" style="verticalLabelPosition=bottom;aspect=fixed;html=1;verticalAlign=top;strokeColor=#d6b656;shape=mxgraph.citrix.desktop;fillColor=#fff2cc;fontSize=14;" parent="1" vertex="1">
          <mxGeometry x="-914.49" y="1120" width="54.49" height="60" as="geometry" />
        </mxCell>
        <mxCell id="VnbkcWjP90r7t8As7K5k-77" value="client" style="verticalLabelPosition=bottom;aspect=fixed;html=1;verticalAlign=top;strokeColor=#d6b656;shape=mxgraph.citrix.desktop;fillColor=#fff2cc;fontSize=14;" parent="1" vertex="1">
          <mxGeometry x="-994.49" y="1190" width="54.49" height="60" as="geometry" />
        </mxCell>
        <mxCell id="VnbkcWjP90r7t8As7K5k-78" value="client" style="verticalLabelPosition=bottom;aspect=fixed;html=1;verticalAlign=top;strokeColor=#d6b656;shape=mxgraph.citrix.desktop;fillColor=#fff2cc;fontSize=14;" parent="1" vertex="1">
          <mxGeometry x="-914.49" y="1190" width="54.49" height="60" as="geometry" />
        </mxCell>
        <mxCell id="VnbkcWjP90r7t8As7K5k-80" value="client" style="verticalLabelPosition=bottom;aspect=fixed;html=1;verticalAlign=top;strokeColor=#d6b656;shape=mxgraph.citrix.desktop;fillColor=#fff2cc;fontSize=14;" parent="1" vertex="1">
          <mxGeometry x="-994.49" y="1260" width="54.49" height="60" as="geometry" />
        </mxCell>
        <mxCell id="VnbkcWjP90r7t8As7K5k-81" value="client" style="verticalLabelPosition=bottom;aspect=fixed;html=1;verticalAlign=top;strokeColor=#d6b656;shape=mxgraph.citrix.desktop;fillColor=#fff2cc;fontSize=14;" parent="1" vertex="1">
          <mxGeometry x="-914.49" y="1260" width="54.49" height="60" as="geometry" />
        </mxCell>
        <mxCell id="VnbkcWjP90r7t8As7K5k-82" value="client" style="verticalLabelPosition=bottom;aspect=fixed;html=1;verticalAlign=top;strokeColor=none;shape=mxgraph.citrix.desktop;fillColor=#66B2FF;gradientColor=#0066CC;fontSize=14;" parent="1" vertex="1">
          <mxGeometry x="-1743.5" y="130" width="54.49" height="60" as="geometry" />
        </mxCell>
        <mxCell id="VnbkcWjP90r7t8As7K5k-83" value="client" style="verticalLabelPosition=bottom;aspect=fixed;html=1;verticalAlign=top;strokeColor=none;shape=mxgraph.citrix.desktop;fillColor=#66B2FF;gradientColor=#0066CC;fontSize=14;" parent="1" vertex="1">
          <mxGeometry x="-1663.5" y="130" width="54.49" height="60" as="geometry" />
        </mxCell>
        <mxCell id="VnbkcWjP90r7t8As7K5k-84" value="client" style="verticalLabelPosition=bottom;aspect=fixed;html=1;verticalAlign=top;strokeColor=none;shape=mxgraph.citrix.desktop;fillColor=#66B2FF;gradientColor=#0066CC;fontSize=14;" parent="1" vertex="1">
          <mxGeometry x="-1743.5" y="200" width="54.49" height="60" as="geometry" />
        </mxCell>
        <mxCell id="VnbkcWjP90r7t8As7K5k-85" value="client" style="verticalLabelPosition=bottom;aspect=fixed;html=1;verticalAlign=top;strokeColor=none;shape=mxgraph.citrix.desktop;fillColor=#66B2FF;gradientColor=#0066CC;fontSize=14;" parent="1" vertex="1">
          <mxGeometry x="-1663.5" y="200" width="54.49" height="60" as="geometry" />
        </mxCell>
        <mxCell id="VnbkcWjP90r7t8As7K5k-90" value="client" style="verticalLabelPosition=bottom;aspect=fixed;html=1;verticalAlign=top;strokeColor=none;shape=mxgraph.citrix.desktop;fillColor=#66B2FF;gradientColor=#0066CC;fontSize=14;" parent="1" vertex="1">
          <mxGeometry x="-1743.5" y="470" width="54.49" height="60" as="geometry" />
        </mxCell>
        <mxCell id="VnbkcWjP90r7t8As7K5k-91" value="client" style="verticalLabelPosition=bottom;aspect=fixed;html=1;verticalAlign=top;strokeColor=none;shape=mxgraph.citrix.desktop;fillColor=#66B2FF;gradientColor=#0066CC;fontSize=14;" parent="1" vertex="1">
          <mxGeometry x="-1663.5" y="470" width="54.49" height="60" as="geometry" />
        </mxCell>
        <mxCell id="VnbkcWjP90r7t8As7K5k-92" value="client" style="verticalLabelPosition=bottom;aspect=fixed;html=1;verticalAlign=top;strokeColor=none;shape=mxgraph.citrix.desktop;fillColor=#66B2FF;gradientColor=#0066CC;fontSize=14;" parent="1" vertex="1">
          <mxGeometry x="-1743.5" y="540" width="54.49" height="60" as="geometry" />
        </mxCell>
        <mxCell id="VnbkcWjP90r7t8As7K5k-93" value="client" style="verticalLabelPosition=bottom;aspect=fixed;html=1;verticalAlign=top;strokeColor=none;shape=mxgraph.citrix.desktop;fillColor=#66B2FF;gradientColor=#0066CC;fontSize=14;" parent="1" vertex="1">
          <mxGeometry x="-1663.5" y="540" width="54.49" height="60" as="geometry" />
        </mxCell>
        <mxCell id="VnbkcWjP90r7t8As7K5k-94" value="client" style="verticalLabelPosition=bottom;aspect=fixed;html=1;verticalAlign=top;strokeColor=none;shape=mxgraph.citrix.desktop;fillColor=#66B2FF;gradientColor=#0066CC;fontSize=14;" parent="1" vertex="1">
          <mxGeometry x="-1075" y="120" width="54.49" height="60" as="geometry" />
        </mxCell>
        <mxCell id="VnbkcWjP90r7t8As7K5k-95" value="client" style="verticalLabelPosition=bottom;aspect=fixed;html=1;verticalAlign=top;strokeColor=none;shape=mxgraph.citrix.desktop;fillColor=#66B2FF;gradientColor=#0066CC;fontSize=14;" parent="1" vertex="1">
          <mxGeometry x="-995" y="120" width="54.49" height="60" as="geometry" />
        </mxCell>
        <mxCell id="VnbkcWjP90r7t8As7K5k-96" value="client" style="verticalLabelPosition=bottom;aspect=fixed;html=1;verticalAlign=top;strokeColor=none;shape=mxgraph.citrix.desktop;fillColor=#66B2FF;gradientColor=#0066CC;fontSize=14;" parent="1" vertex="1">
          <mxGeometry x="-1075" y="190" width="54.49" height="60" as="geometry" />
        </mxCell>
        <mxCell id="VnbkcWjP90r7t8As7K5k-97" value="client" style="verticalLabelPosition=bottom;aspect=fixed;html=1;verticalAlign=top;strokeColor=none;shape=mxgraph.citrix.desktop;fillColor=#66B2FF;gradientColor=#0066CC;fontSize=14;" parent="1" vertex="1">
          <mxGeometry x="-995" y="190" width="54.49" height="60" as="geometry" />
        </mxCell>
        <mxCell id="VnbkcWjP90r7t8As7K5k-102" value="client" style="verticalLabelPosition=bottom;aspect=fixed;html=1;verticalAlign=top;strokeColor=none;shape=mxgraph.citrix.desktop;fillColor=#66B2FF;gradientColor=#0066CC;fontSize=14;" parent="1" vertex="1">
          <mxGeometry x="-1070" y="470" width="54.49" height="60" as="geometry" />
        </mxCell>
        <mxCell id="VnbkcWjP90r7t8As7K5k-103" value="client" style="verticalLabelPosition=bottom;aspect=fixed;html=1;verticalAlign=top;strokeColor=none;shape=mxgraph.citrix.desktop;fillColor=#66B2FF;gradientColor=#0066CC;fontSize=14;" parent="1" vertex="1">
          <mxGeometry x="-990" y="470" width="54.49" height="60" as="geometry" />
        </mxCell>
        <mxCell id="VnbkcWjP90r7t8As7K5k-104" value="client" style="verticalLabelPosition=bottom;aspect=fixed;html=1;verticalAlign=top;strokeColor=none;shape=mxgraph.citrix.desktop;fillColor=#66B2FF;gradientColor=#0066CC;fontSize=14;" parent="1" vertex="1">
          <mxGeometry x="-1070" y="540" width="54.49" height="60" as="geometry" />
        </mxCell>
        <mxCell id="VnbkcWjP90r7t8As7K5k-105" value="client" style="verticalLabelPosition=bottom;aspect=fixed;html=1;verticalAlign=top;strokeColor=none;shape=mxgraph.citrix.desktop;fillColor=#66B2FF;gradientColor=#0066CC;fontSize=14;" parent="1" vertex="1">
          <mxGeometry x="-990" y="540" width="54.49" height="60" as="geometry" />
        </mxCell>
        <mxCell id="VnbkcWjP90r7t8As7K5k-106" value="client" style="verticalLabelPosition=bottom;aspect=fixed;html=1;verticalAlign=top;strokeColor=#d6b656;shape=mxgraph.citrix.desktop;fillColor=#fff2cc;fontSize=14;" parent="1" vertex="1">
          <mxGeometry x="-1350" y="970" width="54.49" height="60" as="geometry" />
        </mxCell>
        <mxCell id="VnbkcWjP90r7t8As7K5k-107" value="client" style="verticalLabelPosition=bottom;aspect=fixed;html=1;verticalAlign=top;strokeColor=#d6b656;shape=mxgraph.citrix.desktop;fillColor=#fff2cc;fontSize=14;" parent="1" vertex="1">
          <mxGeometry x="-1270" y="970" width="54.49" height="60" as="geometry" />
        </mxCell>
        <mxCell id="VnbkcWjP90r7t8As7K5k-109" value="client" style="verticalLabelPosition=bottom;aspect=fixed;html=1;verticalAlign=top;strokeColor=#d6b656;shape=mxgraph.citrix.desktop;fillColor=#fff2cc;fontSize=14;" parent="1" vertex="1">
          <mxGeometry x="-1350" y="1040" width="54.49" height="60" as="geometry" />
        </mxCell>
        <mxCell id="VnbkcWjP90r7t8As7K5k-110" value="client" style="verticalLabelPosition=bottom;aspect=fixed;html=1;verticalAlign=top;strokeColor=#d6b656;shape=mxgraph.citrix.desktop;fillColor=#fff2cc;fontSize=14;" parent="1" vertex="1">
          <mxGeometry x="-1270" y="1040" width="54.49" height="60" as="geometry" />
        </mxCell>
        <mxCell id="VnbkcWjP90r7t8As7K5k-113" value="client" style="verticalLabelPosition=bottom;aspect=fixed;html=1;verticalAlign=top;strokeColor=#d6b656;shape=mxgraph.citrix.desktop;fillColor=#fff2cc;fontSize=14;" parent="1" vertex="1">
          <mxGeometry x="-994.49" y="970" width="54.49" height="60" as="geometry" />
        </mxCell>
        <mxCell id="VnbkcWjP90r7t8As7K5k-114" value="client" style="verticalLabelPosition=bottom;aspect=fixed;html=1;verticalAlign=top;strokeColor=#d6b656;shape=mxgraph.citrix.desktop;fillColor=#fff2cc;fontSize=14;" parent="1" vertex="1">
          <mxGeometry x="-914.49" y="970" width="54.49" height="60" as="geometry" />
        </mxCell>
        <mxCell id="VnbkcWjP90r7t8As7K5k-116" value="client" style="verticalLabelPosition=bottom;aspect=fixed;html=1;verticalAlign=top;strokeColor=#d6b656;shape=mxgraph.citrix.desktop;fillColor=#fff2cc;fontSize=14;" parent="1" vertex="1">
          <mxGeometry x="-994.49" y="1040" width="54.49" height="60" as="geometry" />
        </mxCell>
        <mxCell id="VnbkcWjP90r7t8As7K5k-117" value="client" style="verticalLabelPosition=bottom;aspect=fixed;html=1;verticalAlign=top;strokeColor=#d6b656;shape=mxgraph.citrix.desktop;fillColor=#fff2cc;fontSize=14;" parent="1" vertex="1">
          <mxGeometry x="-914.49" y="1040" width="54.49" height="60" as="geometry" />
        </mxCell>
        <mxCell id="VnbkcWjP90r7t8As7K5k-128" value="" style="fontColor=#0066CC;verticalAlign=top;verticalLabelPosition=bottom;labelPosition=center;align=center;html=1;outlineConnect=0;fillColor=#CCCCCC;strokeColor=#6881B3;gradientColor=none;gradientDirection=north;strokeWidth=2;shape=mxgraph.networks.video_projector;rotation=0;" parent="1" vertex="1">
          <mxGeometry x="-1824" y="340" width="70" height="42.5" as="geometry" />
        </mxCell>
        <mxCell id="VnbkcWjP90r7t8As7K5k-129" value="" style="fontColor=#0066CC;verticalAlign=top;verticalLabelPosition=bottom;labelPosition=center;align=center;html=1;outlineConnect=0;fillColor=#CCCCCC;strokeColor=#6881B3;gradientColor=none;gradientDirection=north;strokeWidth=2;shape=mxgraph.networks.video_projector;rotation=0;" parent="1" vertex="1">
          <mxGeometry x="-1175" y="1310" width="70" height="42.5" as="geometry" />
        </mxCell>
        <mxCell id="VnbkcWjP90r7t8As7K5k-130" value="" style="fontColor=#0066CC;verticalAlign=top;verticalLabelPosition=bottom;labelPosition=center;align=center;html=1;outlineConnect=0;fillColor=#CCCCCC;strokeColor=#6881B3;gradientColor=none;gradientDirection=north;strokeWidth=2;shape=mxgraph.networks.video_projector;rotation=0;" parent="1" vertex="1">
          <mxGeometry x="-750" y="342.75" width="70" height="42.5" as="geometry" />
        </mxCell>
        <mxCell id="EQZSQnF4mukgCcLH6d8S-1" value="" style="shape=image;html=1;verticalAlign=top;verticalLabelPosition=bottom;labelBackgroundColor=#ffffff;imageAspect=0;aspect=fixed;image=https://cdn4.iconfinder.com/data/icons/hotel-service-5/300/air_conditioner-128.png" vertex="1" parent="1">
          <mxGeometry x="-1669" y="-34.5" width="159" height="159" as="geometry" />
        </mxCell>
        <mxCell id="EQZSQnF4mukgCcLH6d8S-2" value="" style="shape=image;html=1;verticalAlign=top;verticalLabelPosition=bottom;labelBackgroundColor=#ffffff;imageAspect=0;aspect=fixed;image=https://cdn4.iconfinder.com/data/icons/hotel-service-5/300/air_conditioner-128.png" vertex="1" parent="1">
          <mxGeometry x="-952" y="-30" width="150" height="150" as="geometry" />
        </mxCell>
        <mxCell id="EQZSQnF4mukgCcLH6d8S-3" value="" style="shape=image;html=1;verticalAlign=top;verticalLabelPosition=bottom;labelBackgroundColor=#ffffff;imageAspect=0;aspect=fixed;image=https://cdn4.iconfinder.com/data/icons/hotel-service-5/300/air_conditioner-128.png;rotation=90;" vertex="1" parent="1">
          <mxGeometry x="-889.51" y="1060" width="173" height="173" as="geometry" />
        </mxCell>
        <mxCell id="EQZSQnF4mukgCcLH6d8S-4" value="" style="verticalLabelPosition=bottom;html=1;verticalAlign=top;align=center;shape=mxgraph.floorplan.doorLeft;aspect=fixed;" vertex="1" parent="1">
          <mxGeometry x="-1240" y="650" width="84.71" height="90" as="geometry" />
        </mxCell>
        <mxCell id="EQZSQnF4mukgCcLH6d8S-6" value="" style="verticalLabelPosition=bottom;html=1;verticalAlign=top;align=center;shape=mxgraph.floorplan.doorLeft;aspect=fixed;rotation=90;" vertex="1" parent="1">
          <mxGeometry x="-1411.21" y="20" width="84.71" height="90" as="geometry" />
        </mxCell>
        <mxCell id="EQZSQnF4mukgCcLH6d8S-8" value="" style="verticalLabelPosition=bottom;html=1;verticalAlign=top;align=center;shape=mxgraph.floorplan.doorLeft;aspect=fixed;" vertex="1" parent="1">
          <mxGeometry x="-1499.9999999999998" y="940" width="84.71" height="90" as="geometry" />
        </mxCell>
        <mxCell id="EQZSQnF4mukgCcLH6d8S-9" value="" style="verticalLabelPosition=bottom;html=1;verticalAlign=top;align=center;shape=mxgraph.floorplan.doorRight;aspect=fixed;rotation=-90;" vertex="1" parent="1">
          <mxGeometry x="-1120" y="20" width="80" height="85" as="geometry" />
        </mxCell>
        <mxCell id="EQZSQnF4mukgCcLH6d8S-10" value="" style="verticalLabelPosition=bottom;html=1;verticalAlign=top;align=center;shape=mxgraph.floorplan.doorRight;aspect=fixed;rotation=-180;" vertex="1" parent="1">
          <mxGeometry x="-1500" y="825" width="80" height="85" as="geometry" />
        </mxCell>
        <mxCell id="EQZSQnF4mukgCcLH6d8S-11" value="" style="shape=image;html=1;verticalAlign=top;verticalLabelPosition=bottom;labelBackgroundColor=#ffffff;imageAspect=0;aspect=fixed;image=https://cdn2.iconfinder.com/data/icons/hexagon-2/690/hexagon-animation-black-128.png" vertex="1" parent="1">
          <mxGeometry x="-882" y="736.5" width="87" height="87" as="geometry" />
        </mxCell>
        <mxCell id="EQZSQnF4mukgCcLH6d8S-13" value="" style="verticalLabelPosition=bottom;dashed=0;shadow=0;html=1;align=center;verticalAlign=top;shape=mxgraph.cabinets.cb_3p;" vertex="1" parent="1">
          <mxGeometry x="-1100" y="660" width="51" height="80" as="geometry" />
        </mxCell>
        <mxCell id="EQZSQnF4mukgCcLH6d8S-21" value="" style="verticalLabelPosition=bottom;dashed=0;shadow=0;html=1;align=center;verticalAlign=top;shape=mxgraph.cabinets.cb_3p;" vertex="1" parent="1">
          <mxGeometry x="-1120" y="130" width="30" height="60" as="geometry" />
        </mxCell>
        <mxCell id="EQZSQnF4mukgCcLH6d8S-22" value="" style="verticalLabelPosition=bottom;dashed=0;shadow=0;html=1;align=center;verticalAlign=top;shape=mxgraph.cabinets.cb_3p;" vertex="1" parent="1">
          <mxGeometry x="-1500" y="1080" width="30" height="60" as="geometry" />
        </mxCell>
        <mxCell id="EQZSQnF4mukgCcLH6d8S-23" value="" style="verticalLabelPosition=bottom;dashed=0;shadow=0;html=1;align=center;verticalAlign=top;shape=mxgraph.cabinets.cb_3p;" vertex="1" parent="1">
          <mxGeometry x="-1356.5" y="140" width="30" height="60" as="geometry" />
        </mxCell>
        <mxCell id="EQZSQnF4mukgCcLH6d8S-24" value="" style="endArrow=classic;startArrow=classic;html=1;exitX=0.883;exitY=0.5;exitDx=0;exitDy=0;exitPerimeter=0;entryX=-0.056;entryY=0.6;entryDx=0;entryDy=0;entryPerimeter=0;" edge="1" parent="1" source="EQZSQnF4mukgCcLH6d8S-23" target="EQZSQnF4mukgCcLH6d8S-21">
          <mxGeometry width="50" height="50" relative="1" as="geometry">
            <mxPoint x="-1275.29" y="180" as="sourcePoint" />
            <mxPoint x="-1155.29" y="180" as="targetPoint" />
            <Array as="points">
              <mxPoint x="-1230" y="160" />
            </Array>
          </mxGeometry>
        </mxCell>
        <mxCell id="EQZSQnF4mukgCcLH6d8S-25" value="" style="endArrow=classic;html=1;exitX=0.588;exitY=1;exitDx=0;exitDy=0;exitPerimeter=0;" edge="1" parent="1" source="EQZSQnF4mukgCcLH6d8S-13">
          <mxGeometry width="50" height="50" relative="1" as="geometry">
            <mxPoint x="-1070" y="757" as="sourcePoint" />
            <mxPoint x="-1230" y="160" as="targetPoint" />
            <Array as="points">
              <mxPoint x="-1070" y="757" />
              <mxPoint x="-1240" y="757" />
              <mxPoint x="-1240" y="530" />
            </Array>
          </mxGeometry>
        </mxCell>
        <mxCell id="EQZSQnF4mukgCcLH6d8S-26" value="" style="endArrow=classic;html=1;exitX=0.027;exitY=0.562;exitDx=0;exitDy=0;exitPerimeter=0;entryX=0.398;entryY=0.102;entryDx=0;entryDy=0;entryPerimeter=0;" edge="1" parent="1" source="EQZSQnF4mukgCcLH6d8S-13" target="EQZSQnF4mukgCcLH6d8S-22">
          <mxGeometry width="50" height="50" relative="1" as="geometry">
            <mxPoint x="-1090" y="830" as="sourcePoint" />
            <mxPoint x="-1040" y="780" as="targetPoint" />
            <Array as="points">
              <mxPoint x="-1500" y="710" />
              <mxPoint x="-1500" y="1080" />
            </Array>
          </mxGeometry>
        </mxCell>
      </root>
    </mxGraphModel>
  </diagram>
</mxfile>
